<?xml version="1.0"?>
<svg xmlns="http://www.w3.org/2000/svg" xmlns:xlink="http://www.w3.org/1999/xlink" xmlns:svgjs="http://svgjs.com/svgjs" version="1.1" width="512" height="512" x="0" y="0" viewBox="0 0 512 512" style="enable-background:new 0 0 512 512" xml:space="preserve" class=""><g><link type="text/css" rel="stylesheet" id="dark-mode-custom-link"/><link type="text/css" rel="stylesheet" id="dark-mode-general-link"/><style lang="en" type="text/css" id="dark-mode-custom-style"/><style lang="en" type="text/css" id="dark-mode-native-style"/>
<g xmlns="http://www.w3.org/2000/svg">
	<g>
		<path d="M256,103.443c-34.598,0-67.22,11.293-94.339,32.658c-3.356,2.644-3.933,7.509-1.289,10.866    c2.644,3.356,7.509,3.932,10.866,1.289c24.363-19.194,53.673-29.339,84.762-29.339c75.588,0,137.084,61.495,137.084,137.084    S331.588,393.084,256,393.084S118.916,331.589,118.916,256c0-31.51,10.392-61.13,30.054-85.662    c2.672-3.334,2.135-8.203-1.199-10.876c-3.334-2.673-8.204-2.136-10.875,1.199c-21.573,26.917-33.454,60.776-33.454,95.34    c0,84.12,68.437,152.557,152.557,152.557S408.557,340.12,408.557,256S340.12,103.443,256,103.443z" fill="#ffffff" data-original="#000000" style=""/>
	</g>
</g>
<g xmlns="http://www.w3.org/2000/svg">
	<g>
		<path d="M256,0c-4.273,0-7.737,3.463-7.737,7.737v41.375c0,4.274,3.464,7.737,7.737,7.737s7.737-3.463,7.737-7.737V7.737    C263.737,3.463,260.273,0,256,0z" fill="#ffffff" data-original="#000000" style=""/>
	</g>
</g>
<g xmlns="http://www.w3.org/2000/svg">
	<g>
		<path d="M159.256,72.962l-20.687-35.831c-2.136-3.701-6.867-4.966-10.569-2.832c-3.7,2.136-4.968,6.868-2.832,10.569    l20.687,35.831c1.433,2.482,4.034,3.869,6.707,3.869c1.312,0,2.643-0.334,3.861-1.038    C160.125,81.394,161.393,76.662,159.256,72.962z" fill="#ffffff" data-original="#000000" style=""/>
	</g>
</g>
<g xmlns="http://www.w3.org/2000/svg">
	<g>
		<path d="M80.698,145.856l-35.832-20.687c-3.7-2.135-8.432-0.87-10.569,2.832c-2.136,3.7-0.869,8.432,2.832,10.569l35.832,20.687    c1.218,0.703,2.549,1.038,3.861,1.038c2.674,0,5.274-1.387,6.707-3.869C85.668,152.724,84.399,147.993,80.698,145.856z" fill="#ffffff" data-original="#000000" style=""/>
	</g>
</g>
<g xmlns="http://www.w3.org/2000/svg">
	<g>
		<path d="M49.112,248.263H7.737C3.464,248.263,0,251.726,0,256s3.464,7.737,7.737,7.737h41.376c4.273,0,7.737-3.463,7.737-7.737    S53.385,248.263,49.112,248.263z" fill="#ffffff" data-original="#000000" style=""/>
	</g>
</g>
<g xmlns="http://www.w3.org/2000/svg">
	<g>
		<path d="M83.53,355.575c-2.136-3.7-6.867-4.966-10.569-2.832L37.13,373.431c-3.7,2.136-4.968,6.868-2.832,10.569    c1.433,2.482,4.033,3.869,6.707,3.869c1.312,0,2.643-0.334,3.861-1.038l35.832-20.687    C84.399,364.007,85.667,359.276,83.53,355.575z" fill="#ffffff" data-original="#000000" style=""/>
	</g>
</g>
<g xmlns="http://www.w3.org/2000/svg">
	<g>
		<path d="M156.425,428.47c-3.7-2.135-8.432-0.87-10.569,2.832l-20.687,35.832c-2.136,3.7-0.869,8.432,2.832,10.568    c1.218,0.704,2.549,1.038,3.861,1.038c2.674,0,5.274-1.387,6.707-3.869l20.687-35.832    C161.393,435.338,160.125,430.606,156.425,428.47z" fill="#ffffff" data-original="#000000" style=""/>
	</g>
</g>
<g xmlns="http://www.w3.org/2000/svg">
	<g>
		<path d="M256,455.152c-4.273,0-7.737,3.463-7.737,7.737v41.375c0,4.274,3.464,7.737,7.737,7.737s7.737-3.463,7.737-7.737v-41.375    C263.737,458.615,260.273,455.152,256,455.152z" fill="#ffffff" data-original="#000000" style=""/>
	</g>
</g>
<g xmlns="http://www.w3.org/2000/svg">
	<g>
		<path d="M386.831,467.134l-20.687-35.832c-2.136-3.701-6.868-4.966-10.569-2.832c-3.7,2.136-4.968,6.868-2.832,10.568    l20.687,35.832c1.433,2.482,4.034,3.869,6.707,3.869c1.312,0,2.643-0.334,3.861-1.038    C387.7,475.566,388.968,470.834,386.831,467.134z" fill="#ffffff" data-original="#000000" style=""/>
	</g>
</g>
<g xmlns="http://www.w3.org/2000/svg">
	<g>
		<path d="M474.87,373.431l-35.832-20.687c-3.7-2.135-8.432-0.87-10.569,2.832c-2.136,3.7-0.869,8.432,2.832,10.569l35.832,20.687    c1.218,0.704,2.549,1.038,3.861,1.038c2.674,0,5.274-1.387,6.707-3.869C479.839,380.299,478.571,375.567,474.87,373.431z" fill="#ffffff" data-original="#000000" style=""/>
	</g>
</g>
<g xmlns="http://www.w3.org/2000/svg">
	<g>
		<path d="M504.263,248.263h-41.376c-4.273,0-7.737,3.463-7.737,7.737s3.464,7.737,7.737,7.737h41.376    c4.273,0,7.737-3.463,7.737-7.737S508.536,248.263,504.263,248.263z" fill="#ffffff" data-original="#000000" style=""/>
	</g>
</g>
<g xmlns="http://www.w3.org/2000/svg">
	<g>
		<path d="M477.702,128c-2.136-3.701-6.868-4.966-10.568-2.832l-35.832,20.687c-3.7,2.136-4.968,6.868-2.832,10.569    c1.433,2.482,4.033,3.869,6.707,3.869c1.312,0,2.643-0.334,3.861-1.038l35.832-20.687    C478.571,136.433,479.838,131.701,477.702,128z" fill="#ffffff" data-original="#000000" style=""/>
	</g>
</g>
<g xmlns="http://www.w3.org/2000/svg">
	<g>
		<path d="M384,34.299c-3.7-2.135-8.432-0.87-10.569,2.832l-20.687,35.831c-2.136,3.699-0.869,8.431,2.832,10.569    c1.218,0.703,2.549,1.038,3.861,1.038c2.674,0,5.274-1.387,6.707-3.869l20.687-35.831C388.968,41.167,387.7,36.435,384,34.299z" fill="#ffffff" data-original="#000000" style=""/>
	</g>
</g>
<g xmlns="http://www.w3.org/2000/svg">
</g>
<g xmlns="http://www.w3.org/2000/svg">
</g>
<g xmlns="http://www.w3.org/2000/svg">
</g>
<g xmlns="http://www.w3.org/2000/svg">
</g>
<g xmlns="http://www.w3.org/2000/svg">
</g>
<g xmlns="http://www.w3.org/2000/svg">
</g>
<g xmlns="http://www.w3.org/2000/svg">
</g>
<g xmlns="http://www.w3.org/2000/svg">
</g>
<g xmlns="http://www.w3.org/2000/svg">
</g>
<g xmlns="http://www.w3.org/2000/svg">
</g>
<g xmlns="http://www.w3.org/2000/svg">
</g>
<g xmlns="http://www.w3.org/2000/svg">
</g>
<g xmlns="http://www.w3.org/2000/svg">
</g>
<g xmlns="http://www.w3.org/2000/svg">
</g>
<g xmlns="http://www.w3.org/2000/svg">
</g>
</g></svg>
