<?xml version="1.0"?>
<svg xmlns="http://www.w3.org/2000/svg" xmlns:xlink="http://www.w3.org/1999/xlink" xmlns:svgjs="http://svgjs.com/svgjs" version="1.1" width="512" height="512" x="0" y="0" viewBox="0 0 512.004 512.004" style="enable-background:new 0 0 512 512" xml:space="preserve" class=""><g><link type="text/css" rel="stylesheet" id="dark-mode-custom-link"/><link type="text/css" rel="stylesheet" id="dark-mode-general-link"/><style lang="en" type="text/css" id="dark-mode-custom-style"/><style lang="en" type="text/css" id="dark-mode-native-style"/>
<g xmlns="http://www.w3.org/2000/svg">
	<path style="" d="M226.536,445.143c-1.405,0-2.81-0.361-4.064-1.087l-40.635-23.46   c-2.516-1.452-4.063-4.135-4.063-7.04v-46.921c0-2.905,1.548-5.587,4.063-7.04l40.635-23.46c2.508-1.452,5.619-1.452,8.127,0   l40.635,23.46c2.516,1.452,4.063,4.135,4.063,7.04v46.921c0,2.905-1.548,5.587-4.063,7.04l-40.635,23.46   C229.345,444.782,227.941,445.143,226.536,445.143z M194.028,408.865l32.508,18.766l32.508-18.766v-37.54l-32.508-18.766   l-32.508,18.766L194.028,408.865L194.028,408.865z" fill="#ffffff" data-original="#e8f7ff" class=""/>
	<path style="" d="M371.814,216.667c-1.405,0-2.81-0.361-4.063-1.087l-40.635-23.46   c-2.516-1.452-4.064-4.135-4.064-7.04v-46.921c0-2.905,1.548-5.587,4.064-7.04l40.635-23.46c2.508-1.452,5.619-1.452,8.127,0   l40.635,23.46c2.516,1.452,4.064,4.135,4.064,7.04v46.921c0,2.905-1.548,5.587-4.064,7.04l-40.635,23.46   C374.623,216.306,373.218,216.667,371.814,216.667z M339.306,180.389l32.508,18.766l32.508-18.766v-37.54l-32.508-18.766   l-32.508,18.766V180.389z" fill="#ffffff" data-original="#e8f7ff" class=""/>
	<path style="" d="M87.877,120.063c-1.405,0-2.809-0.361-4.063-1.087l-40.635-23.46   c-2.516-1.452-4.063-4.135-4.063-7.04v-46.92c0-2.905,1.548-5.587,4.063-7.04l40.635-23.46c2.508-1.452,5.619-1.452,8.127,0   l40.635,23.46c2.516,1.452,4.063,4.135,4.063,7.04v46.921c0,2.905-1.547,5.587-4.063,7.04l-40.635,23.46   C90.687,119.702,89.282,120.063,87.877,120.063z M55.369,83.786l32.508,18.766l32.508-18.766v-37.54L87.877,27.48L55.369,46.246   V83.786z" fill="#ffffff" data-original="#e8f7ff" class=""/>
</g>
<g xmlns="http://www.w3.org/2000/svg">
	<path style="" d="M279.869,411.5l-37.073-21.405l37.073-21.405c3.889-2.246,5.222-7.214,2.976-11.103   c-2.254-3.893-7.23-5.226-11.103-2.976l-37.079,21.408v-42.813c0-4.488-3.635-8.127-8.127-8.127s-8.127,3.639-8.127,8.127v42.809   l-37.071-21.404c-3.881-2.25-8.857-0.917-11.103,2.976c-2.246,3.889-0.913,8.857,2.976,11.103l37.073,21.405L173.21,411.5   c-3.889,2.246-5.222,7.214-2.976,11.103c1.508,2.607,4.238,4.063,7.048,4.063c1.381,0,2.778-0.349,4.056-1.087l37.071-21.404   v42.809c0,4.488,3.635,8.127,8.127,8.127s8.127-3.639,8.127-8.127v-42.813l37.079,21.408c1.278,0.738,2.675,1.087,4.056,1.087   c2.81,0,5.54-1.456,7.048-4.063C285.091,418.714,283.758,413.746,279.869,411.5z" fill="#ffffff" data-original="#bedcf0" class=""/>
	<path style="" d="M425.147,183.024l-37.075-21.405l37.075-21.405c3.889-2.246,5.222-7.214,2.976-11.103   c-2.254-3.893-7.238-5.226-11.103-2.976l-37.079,21.407V104.73c0-4.488-3.635-8.127-8.127-8.127s-8.127,3.639-8.127,8.127v42.812   l-37.079-21.407c-3.881-2.25-8.857-0.917-11.103,2.976c-2.246,3.889-0.913,8.857,2.976,11.103l37.076,21.405l-37.076,21.405   c-3.889,2.246-5.222,7.214-2.976,11.103c1.508,2.607,4.238,4.063,7.048,4.063c1.381,0,2.778-0.349,4.056-1.087l37.079-21.407   v42.812c0,4.488,3.635,8.127,8.127,8.127s8.127-3.639,8.127-8.127v-42.812l37.079,21.407c1.278,0.738,2.675,1.087,4.056,1.087   c2.81,0,5.54-1.456,7.048-4.063C430.369,190.238,429.036,185.27,425.147,183.024z" fill="#ffffff" data-original="#bedcf0" class=""/>
</g>
<g xmlns="http://www.w3.org/2000/svg">
	<circle style="" cx="152.384" cy="186.92" r="16.254" fill="#ffffff" data-original="#e8f7ff" class=""/>
	<circle style="" cx="493.714" cy="292.57" r="16.254" fill="#ffffff" data-original="#e8f7ff" class=""/>
	<circle style="" cx="404.324" cy="495.75" r="16.254" fill="#ffffff" data-original="#e8f7ff" class=""/>
	<circle style="" cx="22.353" cy="422.6" r="16.254" fill="#ffffff" data-original="#e8f7ff" class=""/>
</g>
<g xmlns="http://www.w3.org/2000/svg">
	<path style="" d="M249.909,56.889h-8.127v-8.127c0-4.488-3.635-8.127-8.127-8.127s-8.127,3.639-8.127,8.127v8.127   h-8.127c-4.492,0-8.127,3.639-8.127,8.127s3.635,8.127,8.127,8.127h8.127v8.127c0,4.488,3.635,8.127,8.127,8.127   s8.127-3.639,8.127-8.127v-8.127h8.127c4.492,0,8.127-3.639,8.127-8.127S254.401,56.889,249.909,56.889z" fill="#ffffff" data-original="#d2f0ff" class=""/>
	<path style="" d="M82.607,284.444l10.508-10.508c3.175-3.175,3.175-8.317,0-11.492c-3.175-3.175-8.317-3.175-11.492,0   l-10.508,10.508l-10.508-10.508c-3.175-3.175-8.317-3.175-11.492,0s-3.175,8.317,0,11.492l10.508,10.508l-10.508,10.508   c-3.175,3.175-3.175,8.317,0,11.492c1.587,1.587,3.667,2.381,5.746,2.381s4.159-0.794,5.746-2.381l10.508-10.508l10.508,10.508   c1.587,1.587,3.667,2.381,5.746,2.381s4.159-0.794,5.746-2.381c3.175-3.175,3.175-8.317,0-11.492L82.607,284.444z" fill="#ffffff" data-original="#d2f0ff" class=""/>
	<path style="" d="M472.702,24.381l10.508-10.508c3.175-3.175,3.175-8.317,0-11.492s-8.317-3.175-11.492,0   L461.21,12.889L450.702,2.381c-3.175-3.175-8.317-3.175-11.492,0c-3.175,3.175-3.175,8.317,0,11.492l10.508,10.508L439.21,34.889   c-3.175,3.175-3.175,8.317,0,11.492c1.587,1.587,3.667,2.381,5.746,2.381s4.159-0.794,5.746-2.381l10.508-10.508l10.508,10.508   c1.587,1.587,3.667,2.381,5.746,2.381s4.159-0.794,5.746-2.381c3.175-3.175,3.175-8.317,0-11.492L472.702,24.381z" fill="#ffffff" data-original="#d2f0ff" class=""/>
	<path style="" d="M141.528,481.524l0.349-0.349c3.175-3.175,3.175-8.317,0-11.492c-3.175-3.175-8.317-3.175-11.492,0   l-0.349,0.349l-0.349-0.349c-3.175-3.175-8.317-3.175-11.492,0c-3.175,3.175-3.175,8.317,0,11.492l0.349,0.349l-0.349,0.349   c-3.175,3.175-3.175,8.317,0,11.492c1.587,1.587,3.667,2.381,5.746,2.381s4.159-0.794,5.746-2.381l0.349-0.349l0.349,0.349   c1.587,1.587,3.667,2.381,5.746,2.381s4.159-0.794,5.746-2.381c3.175-3.175,3.175-8.317,0-11.492L141.528,481.524z" fill="#ffffff" data-original="#d2f0ff" class=""/>
	<path style="" d="M271.56,245.841l0.349-0.349c3.175-3.175,3.175-8.317,0-11.492s-8.317-3.175-11.492,0l-0.349,0.349   l-0.35-0.349c-3.175-3.175-8.317-3.175-11.492,0s-3.175,8.317,0,11.492l0.349,0.349l-0.349,0.349   c-3.175,3.175-3.175,8.317,0,11.492c1.587,1.587,3.667,2.381,5.746,2.381c2.079,0,4.159-0.794,5.746-2.381l0.349-0.349l0.349,0.349   c1.587,1.587,3.667,2.381,5.746,2.381s4.159-0.794,5.746-2.381c3.175-3.175,3.175-8.317,0-11.492L271.56,245.841z" fill="#ffffff" data-original="#d2f0ff" class=""/>
	<path style="" d="M27.75,197.079l0.349-0.349c3.175-3.175,3.175-8.317,0-11.492s-8.317-3.175-11.492,0l-0.349,0.349   l-0.349-0.349c-3.175-3.175-8.317-3.175-11.492,0s-3.175,8.317,0,11.492l0.349,0.349l-0.349,0.349   c-3.175,3.175-3.175,8.317,0,11.492c1.587,1.587,3.667,2.381,5.746,2.381s4.159-0.794,5.746-2.381l0.349-0.349l0.349,0.349   c1.587,1.587,3.667,2.381,5.746,2.381s4.159-0.794,5.746-2.381c3.175-3.175,3.175-8.317,0-11.492L27.75,197.079z" fill="#ffffff" data-original="#d2f0ff" class=""/>
</g>
<path xmlns="http://www.w3.org/2000/svg" style="" d="M141.202,86.421l-37.073-21.405l37.073-21.405c3.889-2.246,5.222-7.214,2.976-11.103  s-7.23-5.218-11.103-2.976L96.004,50.936V8.127C96.004,3.639,92.369,0,87.877,0S79.75,3.639,79.75,8.127V50.94L42.671,29.532  c-3.889-2.242-8.857-0.913-11.103,2.976s-0.913,8.857,2.976,11.103l37.073,21.405L34.544,86.421  c-3.889,2.246-5.222,7.214-2.976,11.103c1.508,2.607,4.238,4.063,7.048,4.063c1.381,0,2.778-0.349,4.056-1.087l37.079-21.408v42.813  c0,4.488,3.635,8.127,8.127,8.127s8.127-3.639,8.127-8.127V79.096l37.072,21.404c1.278,0.738,2.675,1.087,4.056,1.087  c2.81,0,5.54-1.456,7.048-4.063C146.425,93.635,145.091,88.667,141.202,86.421z" fill="#ffffff" data-original="#bedcf0" class=""/>
<path xmlns="http://www.w3.org/2000/svg" style="" d="M396.194,357.587h-8.127v-8.127c0-4.488-3.635-8.127-8.127-8.127s-8.127,3.639-8.127,8.127v8.127  h-8.127c-4.492,0-8.127,3.639-8.127,8.127s3.635,8.127,8.127,8.127h8.127v8.127c0,4.488,3.635,8.127,8.127,8.127  s8.127-3.639,8.127-8.127v-8.127h8.127c4.492,0,8.127-3.639,8.127-8.127S400.687,357.587,396.194,357.587z" fill="#ffffff" data-original="#d2f0ff" class=""/>
<g xmlns="http://www.w3.org/2000/svg">
</g>
<g xmlns="http://www.w3.org/2000/svg">
</g>
<g xmlns="http://www.w3.org/2000/svg">
</g>
<g xmlns="http://www.w3.org/2000/svg">
</g>
<g xmlns="http://www.w3.org/2000/svg">
</g>
<g xmlns="http://www.w3.org/2000/svg">
</g>
<g xmlns="http://www.w3.org/2000/svg">
</g>
<g xmlns="http://www.w3.org/2000/svg">
</g>
<g xmlns="http://www.w3.org/2000/svg">
</g>
<g xmlns="http://www.w3.org/2000/svg">
</g>
<g xmlns="http://www.w3.org/2000/svg">
</g>
<g xmlns="http://www.w3.org/2000/svg">
</g>
<g xmlns="http://www.w3.org/2000/svg">
</g>
<g xmlns="http://www.w3.org/2000/svg">
</g>
<g xmlns="http://www.w3.org/2000/svg">
</g>
</g></svg>
