<?xml version="1.0"?>
<svg xmlns="http://www.w3.org/2000/svg" xmlns:xlink="http://www.w3.org/1999/xlink" xmlns:svgjs="http://svgjs.com/svgjs" version="1.1" width="512" height="512" x="0" y="0" viewBox="0 0 512 512" style="enable-background:new 0 0 512 512" xml:space="preserve" class=""><g><link type="text/css" rel="stylesheet" id="dark-mode-custom-link"/><link type="text/css" rel="stylesheet" id="dark-mode-general-link"/><style lang="en" type="text/css" id="dark-mode-custom-style"/><style lang="en" type="text/css" id="dark-mode-native-style"/><g xmlns="http://www.w3.org/2000/svg" id="Cloud_Snow_Sunny" data-name="Cloud Snow Sunny"><g id="Outline"><path d="M88.817,270.974C56.426,280.762,32,315.6,32,352a8,8,0,0,0,16,0c0-29.632,19.537-57.881,45.445-65.71a8,8,0,1,0-4.628-15.316Z" fill="#ffffff" data-original="#000000" style="" class=""/><path d="M412.109,280a8,8,0,0,0,16,0c0-41.047-29.28-72-68.109-72a8,8,0,0,0,0,16C389.707,224,412.109,248.075,412.109,280Z" fill="#ffffff" data-original="#000000" style="" class=""/><path d="M188.81,140.85a7.845,7.845,0,0,0,1.98-.25h.01A151.208,151.208,0,0,1,228,136c40.079.018,77.015,15.955,103.062,44.1A104.184,104.184,0,0,0,256,280a8,8,0,0,0,16,0,88.1,88.1,0,0,1,88-88,81.987,81.987,0,0,1,60.12,25.61C435.59,234,444.109,256.16,444.109,280a54.867,54.867,0,0,1-2.167,16.161c-36.95,1.83-55.125,20.291-63.915,35.917A80.413,80.413,0,0,0,368,368a7.988,7.988,0,0,0,7.973,7.986H376a8.011,8.011,0,0,0,8-7.959c.016-2.271,1.106-55.278,62.718-56.01,21.349,7.446,39.362,24.969,46.1,44.983a7.991,7.991,0,0,0,7.571,5.42,7.848,7.848,0,0,0,2.58-.43,8.009,8.009,0,0,0,4.99-10.15,82.26,82.26,0,0,0-8.15-17.01,88.628,88.628,0,0,0-11.57-14.71,95.281,95.281,0,0,0-30.53-20.98,71.459,71.459,0,0,0,2.4-19.14,110.038,110.038,0,0,0-7.489-40.28,101.983,101.983,0,0,0-20.87-33.09,96.381,96.381,0,0,0-31.76-22.4A99.018,99.018,0,0,0,360.08,176H348.71a151.385,151.385,0,0,0-52.88-41.08,156.374,156.374,0,0,0-32.5-11.08A162.669,162.669,0,0,0,228.06,120H228a167.176,167.176,0,0,0-41.16,5.09,8,8,0,0,0,1.97,15.76Z" fill="#ffffff" data-original="#000000" style="" class=""/><path d="M158.86,135.92a8.029,8.029,0,0,0-3.56.84,8,8,0,0,0,7.11,14.34l.01-.01a8,8,0,0,0-3.56-15.17Z" fill="#ffffff" data-original="#000000" style="" class=""/><path d="M152.01,440H112c-26.37,0-50.59-8.68-68.21-24.43C25.65,399.3,16.04,377.31,16,352a104.9,104.9,0,0,1,19.43-60.14c12.5-17.63,29.82-30.49,48.76-36.2a8.043,8.043,0,0,0,5.58-6.4,130.451,130.451,0,0,1,47.27-81.88,8,8,0,1,0-10.08-12.43,147.155,147.155,0,0,0-52.13,86.96,104.546,104.546,0,0,0-29.27,16.27,116.861,116.861,0,0,0-23.18,24.43A122.332,122.332,0,0,0,5.93,315.26,117.806,117.806,0,0,0,0,352c-.04,29.62,11.73,56.44,33.13,75.5C53.7,445.88,81.71,456,112,456h40a8,8,0,0,0,.01-16Z" fill="#ffffff" data-original="#000000" style="" class=""/><path d="M504.4,378.05a7.578,7.578,0,0,0-1.069-.07,8.014,8.014,0,0,0-7.92,6.94v.01a8.015,8.015,0,0,0,6.87,8.98,7.592,7.592,0,0,0,1.07.07,8.022,8.022,0,0,0,7.92-6.92v-.02A8.006,8.006,0,0,0,504.4,378.05Z" fill="#ffffff" data-original="#000000" style="" class=""/><path d="M496.6,409.01a7.994,7.994,0,0,0-11.1,2.15.01.01,0,0,0-.01.01C473.3,429.21,451.81,439.99,428,440H376a8,8,0,0,0,0,16h52l.05-.05V456a92.353,92.353,0,0,0,21.32-2.47,87.257,87.257,0,0,0,19.4-7.1,80.087,80.087,0,0,0,29.99-26.32A8,8,0,0,0,496.6,409.01Z" fill="#ffffff" data-original="#000000" style="" class=""/><circle cx="264" cy="416" r="8" fill="#ffffff" data-original="#000000" style="" class=""/><path d="M272,371.314l21.657-21.657a8,8,0,0,0-11.314-11.314L272,348.686V328a8,8,0,0,0-16,0v20.687l-10.343-10.344a8,8,0,0,0-11.314,11.314L256,371.314V384a8,8,0,0,0,16,0Z" fill="#ffffff" data-original="#000000" style="" class=""/><path d="M272,460.686V448a8,8,0,0,0-16,0v12.686l-21.657,21.657a8,8,0,0,0,11.314,11.314L256,483.313V504a8,8,0,0,0,16,0V483.314l10.343,10.343a8,8,0,0,0,11.314-11.314Z" fill="#ffffff" data-original="#000000" style="" class=""/><path d="M232,424a8,8,0,0,0,0-16H219.313l-21.656-21.657a8,8,0,0,0-11.314,11.314L196.687,408H176a8,8,0,0,0,0,16h20.687l-10.344,10.343a8,8,0,0,0,11.314,11.314L219.313,424Z" fill="#ffffff" data-original="#000000" style="" class=""/><path d="M352,408H331.314l10.343-10.343a8,8,0,0,0-11.314-11.314L308.686,408H296a8,8,0,0,0,0,16h12.686l21.657,21.657a8,8,0,0,0,11.314-11.314L331.314,424H352a8,8,0,0,0,0-16Z" fill="#ffffff" data-original="#000000" style="" class=""/><path d="M209.941,362.343a8,8,0,0,0,0,11.314l16,16a8,8,0,1,0,11.314-11.314l-16-16A8,8,0,0,0,209.941,362.343Z" fill="#ffffff" data-original="#000000" style="" class=""/><path d="M295.6,392a7.976,7.976,0,0,0,5.657-2.343l16-16a8,8,0,0,0-11.315-11.314l-16,16A8,8,0,0,0,295.6,392Z" fill="#ffffff" data-original="#000000" style="" class=""/><path d="M237.255,442.343a8,8,0,0,0-11.314,0l-16,16a8,8,0,0,0,11.314,11.314l16-16A8,8,0,0,0,237.255,442.343Z" fill="#ffffff" data-original="#000000" style="" class=""/><path d="M301.255,442.343a8,8,0,1,0-11.315,11.314l16,16a8,8,0,0,0,11.315-11.314Z" fill="#ffffff" data-original="#000000" style="" class=""/><path d="M273.513,109.529a8,8,0,0,0,10.976-2.742,88.028,88.028,0,0,1,156.592,79.5,8,8,0,1,0,14.738,6.228A104.068,104.068,0,0,0,360,48a104.611,104.611,0,0,0-89.229,50.553A8,8,0,0,0,273.513,109.529Z" fill="#ffffff" data-original="#000000" style="" class=""/><path d="M480,152a8,8,0,0,0,8,8h16a8,8,0,0,0,0-16H488A8,8,0,0,0,480,152Z" fill="#ffffff" data-original="#000000" style="" class=""/><path d="M360,32a8,8,0,0,0,8-8V8a8,8,0,0,0-16,0V24A8,8,0,0,0,360,32Z" fill="#ffffff" data-original="#000000" style="" class=""/><path d="M450.51,69.49a7.976,7.976,0,0,0,5.657-2.343L467.48,55.833A8,8,0,0,0,456.166,44.52L444.853,55.833A8,8,0,0,0,450.51,69.49Z" fill="#ffffff" data-original="#000000" style="" class=""/><path d="M263.833,67.147a8,8,0,1,0,11.314-11.314L263.834,44.52A8,8,0,0,0,252.52,55.833Z" fill="#ffffff" data-original="#000000" style="" class=""/><path d="M478.355,111.251a7.97,7.97,0,0,0,3.044-.605l14.794-6.093A8,8,0,1,0,490.1,89.759l-14.794,6.094a8,8,0,0,0,3.049,15.4Z" fill="#ffffff" data-original="#000000" style="" class=""/><path d="M475.306,208.147l14.794,6.094a8,8,0,1,0,6.093-14.794L481.4,193.354a8,8,0,1,0-6.093,14.793Z" fill="#ffffff" data-original="#000000" style="" class=""/><path d="M223.806,104.553l14.794,6.093a8,8,0,1,0,6.094-14.793L229.9,89.759a8,8,0,0,0-6.094,14.794Z" fill="#ffffff" data-original="#000000" style="" class=""/><path d="M304.074,36.586a8,8,0,1,0,14.807-6.065l-6.066-14.806a8,8,0,0,0-14.806,6.065Z" fill="#ffffff" data-original="#000000" style="" class=""/><path d="M405.49,40.957a7.994,7.994,0,0,0,10.436-4.371l6.065-14.806a8,8,0,0,0-14.806-6.065l-6.066,14.806A8,8,0,0,0,405.49,40.957Z" fill="#ffffff" data-original="#000000" style="" class=""/></g></g></g></svg>
